<svg id="Layer_1" data-name="Layer 1" xmlns="http://www.w3.org/2000/svg" viewBox="0 0 500 500"><defs><style>.cls-1{fill:#f2f2f2;}.cls-2{opacity:0.8;}.cls-3{fill:#fbbb40;}.cls-4{fill:#e77524;}.cls-5{fill:#fed682;}.cls-6{fill:#fed581;}</style></defs><title>Artboard 1</title><rect class="cls-1" x="-0.32" y="-0.11" width="500" height="500"/><g class="cls-2"><path class="cls-3" d="M250.27,354.2c-1,.9-1.72-.11-2.45-.46Q194.39,328.54,141,303.33c-1.89-.89-2.41-2-2.41-4q.09-55.84.07-111.69c0-1-.47-2.08.6-2.84.8,1,2,1.33,3.13,1.85q39.16,18.57,78.35,37.09,14.44,6.82,28.9,13.59,0,56.84,0,113.69C249.62,352.1,249.25,353.31,250.27,354.2Z"/><path class="cls-4" d="M250.27,354.2c-1-.89-.65-2.1-.65-3.18q0-56.85,0-113.69,27.38-13,54.74-25.92c13.07-6.18,26.18-12.24,39.19-18.53,5.51-2.67,11.31-4.75,16.45-8.16,1.06.89.57,2.11.57,3.17q0,55.73.05,111.45c0,1.77-.18,3-2.08,3.86q-53.73,25.29-107.39,50.73A6,6,0,0,1,250.27,354.2Zm60.35-64.14c0-3.29-.09-6.59,0-9.87.08-2.21-.2-3-2.62-1.8-12.48,6-25,11.87-37.58,17.73a2.67,2.67,0,0,0-1.81,2.81q.09,10.5,0,21c0,2.1.76,2.19,2.4,1.41q18.9-9,37.83-17.94a2.67,2.67,0,0,0,1.78-2.84C310.56,297.06,310.62,293.56,310.62,290.06Z"/><path class="cls-5" d="M360,184.72c-5.14,3.41-10.94,5.49-16.45,8.16-13,6.29-26.12,12.35-39.19,18.53Q277,224.36,249.62,237.33q-14.44-6.79-28.9-13.59-39.18-18.53-78.35-37.09c-1.09-.52-2.33-.83-3.13-1.85,5.22-3.28,11-5.48,16.51-8.15,13.5-6.53,27.09-12.84,40.65-19.24q25.64-12.09,51.24-24.23a4.17,4.17,0,0,1,4,0q20,9.53,40.1,18.94,33.42,15.74,66.84,31.48A8.52,8.52,0,0,1,360,184.72Z"/><path class="cls-6" d="M310.62,290.06c0,3.5-.06,7,0,10.5a2.67,2.67,0,0,1-1.78,2.84q-18.93,8.91-37.83,17.94c-1.64.78-2.42.69-2.4-1.41q.11-10.5,0-21a2.67,2.67,0,0,1,1.81-2.81c12.55-5.86,25.1-11.73,37.58-17.73,2.42-1.17,2.7-.41,2.62,1.8C310.53,283.47,310.62,286.77,310.62,290.06Z"/></g></svg>